<mxfile host="app.diagrams.net" modified="2023-11-12T06:42:30.802Z" agent="Mozilla/5.0 (X11; Linux x86_64) AppleWebKit/537.36 (KHTML, like Gecko) Chrome/116.0.0.0 Safari/537.36" version="22.1.0" etag="K1LrGfCk2LJQ1H_BQOed" type="github">
  <diagram name="Page-1" id="rJUXxh0RGg3YJegq2bEo">
    <mxGraphModel>
      <root>
        <mxCell id="0" />
        <mxCell id="1" parent="0" />
      </root>
    </mxGraphModel>
  </diagram>
</mxfile>
